<?xml version="1.0" encoding="UTF-8"?>
<svg version="1.1" xmlns="http://www.w3.org/2000/svg" width="512" height="512">
<path d="M0 0 C17.43524338 13.46794249 30.26404154 32.95363152 33.125 55.125 C35.13316284 81.12965179 30.15530915 103.84929232 13.125 124.125 C8.24719917 129.51758604 3.19424971 134.12187785 -2.875 138.125 C-2.24693464 142.7028986 -1.046564 146.77587458 0.5 151.125 C12.60910457 186.21606674 9.25334491 225.4902023 -6.58764648 258.77929688 C-12.5189564 270.73747292 -20.06332144 280.91731103 -29.32714844 290.48144531 C-31.15912587 292.42669328 -32.9108574 294.435082 -34.67578125 296.44140625 C-41.62461105 304.19132891 -49.1084447 311.42637584 -56.5 318.75 C-59.43268173 321.65585842 -62.36186939 324.56517637 -65.2890625 327.4765625 C-65.94653473 328.12573639 -66.60400696 328.77491028 -67.28140259 329.4437561 C-70.42260666 332.56851907 -73.44909112 335.73740029 -76.34326172 339.09326172 C-80.02563425 343.35822801 -83.96253251 347.32202225 -87.96875 351.28125 C-89.09428284 352.40110291 -89.09428284 352.40110291 -90.24255371 353.5435791 C-93.41716504 356.70201112 -96.59775916 359.85439279 -99.77783203 363.00732422 C-102.11440361 365.32569745 -104.44787999 367.6471552 -106.78125 369.96875 C-107.4887439 370.66794556 -108.19623779 371.36714111 -108.9251709 372.08752441 C-112.90263231 376.04559626 -116.67591436 380.11292318 -120.3397522 384.3626709 C-122.16767523 386.46096536 -124.08293552 388.44691952 -126.05859375 390.40625 C-126.75791016 391.10234375 -127.45722656 391.7984375 -128.17773438 392.515625 C-129.23444336 393.55976562 -129.23444336 393.55976562 -130.3125 394.625 C-131.40981445 395.71554687 -131.40981445 395.71554687 -132.52929688 396.828125 C-134.30889824 398.59609499 -136.09080918 400.36166378 -137.875 402.125 C-130.19432545 401.42062946 -122.74240984 400.00501134 -115.1875 398.47265625 C-113.87677133 398.20952303 -112.56597904 397.94670656 -111.25512695 397.68418884 C-108.52149815 397.13594383 -105.78838235 396.58523605 -103.05566406 396.0324707 C-99.57675252 395.32877577 -96.0970264 394.62921984 -92.61695862 393.93126774 C-89.26520176 393.25890852 -85.91382329 392.58467277 -82.5625 391.91015625 C-81.3247583 391.66113052 -80.0870166 391.4121048 -78.81176758 391.15553284 C-73.11736419 390.00417448 -67.43466339 388.83457579 -61.78063965 387.49739075 C-58.32706359 386.82250986 -54.88502472 386.74191611 -51.375 386.75 C-50.26753418 386.75241699 -50.26753418 386.75241699 -49.13769531 386.75488281 C-43.34167345 386.8851592 -38.78512964 387.90342173 -33.875 391.125 C-32.92625 391.74375 -31.9775 392.3625 -31 393 C-26.50082605 397.49917395 -25.25216067 402.35896449 -24.81640625 408.54296875 C-24.99260621 416.3075136 -28.66732795 422.57001144 -33.875 428.125 C-40.79319496 433.95343288 -48.90392088 436.50317515 -57.375 439.1875 C-58.91265332 439.68608179 -60.44990863 440.18589233 -61.98681641 440.68676758 C-65.53713537 441.84067036 -69.09037562 442.98503863 -72.64550781 444.12402344 C-79.04445305 446.17582112 -85.43482997 448.25376559 -91.82500648 450.33266449 C-108.48160253 455.75027923 -125.1533008 461.12045664 -141.8319931 466.46961975 C-143.84817256 467.11639397 -145.86419935 467.76364199 -147.88018799 468.41101074 C-155.36832486 470.81501373 -162.85960636 473.20889472 -170.35552979 475.58853149 C-172.62259012 476.30922845 -174.8888564 477.03242906 -177.15423584 477.75839233 C-211.90844326 488.88535637 -211.90844326 488.88535637 -228.875 488.625 C-229.88304687 488.64046875 -230.89109375 488.6559375 -231.9296875 488.671875 C-237.93029315 488.64194679 -243.62365316 487.90894315 -249.46679688 486.58374023 C-250.23136452 486.41161231 -250.99593216 486.23948439 -251.78366852 486.06214046 C-263.65970056 483.32039005 -275.40025924 480.02667092 -287.15617561 476.81656384 C-290.66625949 475.85903457 -294.17762935 474.9062428 -297.68884277 473.9528656 C-303.57959533 472.35270888 -309.4695371 470.7495993 -315.35888672 469.14428711 C-323.60436563 466.89674634 -331.85127027 464.65447433 -340.0984869 462.41331971 C-388.86348395 449.16026099 -388.86348395 449.16026099 -406.875 444.125 C-406.8654126 445.03580322 -406.8558252 445.94660645 -406.84594727 446.88500977 C-406.77734375 453.40234375 -406.77734375 453.40234375 -406.875 456.125 C-408.74485821 457.99485821 -411.90647621 457.25279348 -414.3984375 457.25439453 C-415.07972717 457.25614685 -415.76101685 457.25789917 -416.46295166 457.25970459 C-418.72532667 457.26412242 -420.98762413 457.26118538 -423.25 457.2578125 C-424.8155926 457.25848556 -426.3811851 457.2594556 -427.94677734 457.26071167 C-431.23210645 457.26218855 -434.51740842 457.26003441 -437.80273438 457.25537109 C-442.02320516 457.2496738 -446.24361236 457.25295286 -450.46408081 457.25894356 C-453.69816572 457.26254944 -456.93223545 457.26141046 -460.1663208 457.25881577 C-461.72292081 457.25814657 -463.27952218 457.25897466 -464.83612061 457.26129532 C-467.00797196 457.2638223 -469.17971896 457.25998065 -471.3515625 457.25439453 C-472.58986816 457.25359894 -473.82817383 457.25280334 -475.10400391 457.25198364 C-477.875 457.125 -477.875 457.125 -478.875 456.125 C-478.97143778 454.30272313 -478.99687371 452.4766664 -478.99525452 450.65184021 C-478.99731651 448.87018463 -478.99731651 448.87018463 -478.99942017 447.05253601 C-478.99582489 445.73767715 -478.99222961 444.4228183 -478.98852539 443.06811523 C-478.98824352 441.67882286 -478.98840125 440.28953033 -478.9889679 438.90023804 C-478.98925588 435.11734711 -478.98335901 431.33448762 -478.97639394 427.55160403 C-478.97016055 423.60244323 -478.96955661 419.65328178 -478.96836853 415.70411682 C-478.96525517 408.22074925 -478.95704172 400.73739621 -478.94701904 393.25403506 C-478.93585805 384.73664267 -478.93034749 376.2192496 -478.92532361 367.70185173 C-478.91485911 350.17622606 -478.89725958 332.65061457 -478.875 315.125 C-476.05615203 313.71557601 -473.69778628 313.98994841 -470.54516602 313.97973633 C-469.89620361 313.97637772 -469.24724121 313.9730191 -468.57861328 313.96955872 C-466.42869158 313.96004291 -464.27884771 313.95810532 -462.12890625 313.95703125 C-460.63679471 313.95381918 -459.1446835 313.95045515 -457.65257263 313.94694519 C-454.52285024 313.9409524 -451.39315546 313.93910545 -448.26342773 313.93969727 C-444.2505174 313.93979891 -440.23778391 313.92614462 -436.2249155 313.90892506 C-433.14258509 313.89781375 -430.06029754 313.89577779 -426.97794914 313.89630699 C-425.49835538 313.89512564 -424.01876056 313.89069519 -422.53918648 313.88297462 C-420.47074067 313.8731918 -418.40268035 313.87604573 -416.33422852 313.88208008 C-415.15667496 313.88065506 -413.9791214 313.87923004 -412.7658844 313.87776184 C-409.875 314.125 -409.875 314.125 -406.875 316.125 C-406.875 319.755 -406.875 323.385 -406.875 327.125 C-389.385 324.155 -371.895 321.185 -353.875 318.125 C-353.64644863 315.7362123 -353.64644863 315.7362123 -356.47265625 313.3671875 C-357.62350295 312.24058687 -358.77872953 311.11844897 -359.9375 310 C-364.19774054 305.82216035 -368.29731392 301.62113178 -372.1484375 297.05859375 C-374.21537013 294.74381625 -376.44347707 292.64328506 -378.6875 290.5 C-402.18169445 267.18406196 -414.71934579 232.91214953 -415.11669922 200.14306641 C-415.20397029 165.12683058 -405.72064172 133.17115371 -382.875 106.125 C-382.19824219 105.30128906 -381.52148438 104.47757812 -380.82421875 103.62890625 C-364.93836083 85.01312028 -342.03216642 73.94744023 -317.79736328 71.5234375 C-284.92227436 68.93894002 -252.32566142 80.3844116 -226.875 101.125 C-220.05027946 106.95692917 -213.58259329 113.14658127 -207.65625 119.89453125 C-205.91109712 121.34272631 -205.91109712 121.34272631 -203.5078125 121.16796875 C-199.94622757 119.75707383 -197.79367191 117.38200942 -195.25 114.625 C-179.59773789 98.36413273 -158.94865917 83.27808628 -136.875 77.125 C-136.215 77.125 -135.555 77.125 -134.875 77.125 C-134.90980469 75.84367187 -134.94460938 74.56234375 -134.98046875 73.2421875 C-135.4630058 48.11857918 -128.72657954 27.05578183 -111.265625 8.49609375 C-80.97264444 -21.54939513 -34.612015 -24.04829171 0 0 Z " fill="#FD636E" transform="translate(478.875,19.875)"/>
<path d="M0 0 C4.32144623 4.02990986 8.44202371 8.20188381 12.34375 12.64453125 C14.08890288 14.09272631 14.08890288 14.09272631 16.4921875 13.91796875 C20.05348519 12.50718762 22.20693889 10.13239943 24.75 7.375 C32.17730219 -0.36432516 40.29085471 -7.03925547 49.125 -13.125 C64.57931819 1.08467512 73.54660728 27.14676394 79.125 46.875 C79.31642578 47.55079102 79.50785156 48.22658203 79.70507812 48.92285156 C84.711568 66.98633681 87.4244667 85.10842044 87.125 103.875 C87.785 103.545 88.445 103.215 89.125 102.875 C91.28332215 102.75747609 93.44529283 102.7051725 95.60668945 102.68212891 C96.60457489 102.66986267 96.60457489 102.66986267 97.62261963 102.65734863 C99.82783101 102.63250306 102.03297804 102.61598058 104.23828125 102.6015625 C104.99145315 102.59623882 105.74462505 102.59091515 106.52062035 102.58543015 C110.50747027 102.55870168 114.49428892 102.53932622 118.48120117 102.52490234 C122.59734179 102.50825835 126.71268112 102.46348309 130.82851887 102.4125309 C133.99499928 102.37885879 137.16128951 102.36732506 140.32793236 102.36167526 C141.84500436 102.35496216 143.36206382 102.33973825 144.87896156 102.31578445 C147.00501214 102.28412806 149.12890215 102.28409501 151.25512695 102.29150391 C152.46376907 102.28341705 153.67241119 102.2753302 154.91767883 102.26699829 C159.05777415 103.05182304 160.53984605 104.61568855 163.125 107.875 C163.6875 110.9375 163.6875 110.9375 163.125 113.875 C161.2579009 116.17775556 159.76852259 117.55323871 157.125 118.875 C155.21023835 118.89806984 153.29453017 118.85392733 151.38110352 118.77880859 C145.34619232 118.57167209 139.31690432 118.43841301 133.27928257 118.36385155 C129.62747788 118.31405221 125.98294948 118.23033156 122.33422852 118.06933594 C106.73686604 116.78517365 106.73686604 116.78517365 92.7064209 121.71270752 C86.27933895 129.15944956 83.3024873 138.8952654 82.4921875 148.58203125 C79.64355033 174.1288518 64.84497424 203.97695952 49.125 223.875 C48.80789063 223.36710937 48.49078125 222.85921875 48.1640625 222.3359375 C40.127739 210.48125035 27.62862095 207.61756224 14.27172852 205.03588867 C13.21268311 204.83842041 12.1536377 204.64095215 11.0625 204.4375 C9.37435181 204.12099487 9.37435181 204.12099487 7.65209961 203.7980957 C4.14470408 203.14774524 0.63515612 202.51026462 -2.875 201.875 C-3.97553711 201.67165039 -5.07607422 201.46830078 -6.20996094 201.25878906 C-30.92165661 196.73808535 -52.02132421 198.23467741 -76.6315918 202.48846436 C-79.72671281 203.02174875 -82.82340669 203.54561153 -85.92004395 204.07000732 C-91.98566332 205.09755832 -98.04982678 206.13307749 -104.11120605 207.18536377 C-106.12144127 207.53421657 -108.13198761 207.881229 -110.14257812 208.22802734 C-112.54337426 208.6441779 -114.94321076 209.06592387 -117.34179688 209.49462891 C-118.9128418 209.76992432 -118.9128418 209.76992432 -120.515625 210.05078125 C-121.86188965 210.29115112 -121.86188965 210.29115112 -123.23535156 210.53637695 C-130.87576507 211.51651509 -130.87576507 211.51651509 -133.82202148 209.625 C-134.37446533 209.0475 -134.92690918 208.47 -135.49609375 207.875 C-136.11782471 207.23908936 -136.73955566 206.60317871 -137.38012695 205.94799805 C-138.33665161 204.92186401 -138.33665161 204.92186401 -139.3125 203.875 C-139.97918701 203.1838208 -140.64587402 202.4926416 -141.33276367 201.78051758 C-145.08119847 197.87000821 -148.73559281 193.88785882 -152.21875 189.73828125 C-154.25814958 187.44395672 -156.4679302 185.3702372 -158.6875 183.25 C-182.18169445 159.93406196 -194.71934579 125.66214953 -195.11669922 92.89306641 C-195.20397029 57.87683058 -185.72064172 25.92115371 -162.875 -1.125 C-162.19824219 -1.94871094 -161.52148438 -2.77242187 -160.82421875 -3.62109375 C-144.93836083 -22.23687972 -122.03216642 -33.30255977 -97.79736328 -35.7265625 C-61.58606929 -38.57333802 -26.45843749 -24.41608567 0 0 Z " fill="#FC8087" transform="translate(258.875,127.125)"/>
<path d="M0 0 C3.18315837 0.58105618 6.36927831 1.13606321 9.55844116 1.68264771 C12.32322604 2.16107963 15.08445082 2.65811652 17.84509277 3.15985107 C19.81335228 3.51420405 21.78433928 3.85330173 23.75537109 4.19189453 C35.51819066 6.39953854 47.73676506 10.66405331 55.05908203 20.70117188 C59.6878712 27.87382818 60.44031217 34.13934048 59.56298828 42.65039062 C57.21610315 49.17536274 51.74675595 54.36183395 45.73486328 57.65039062 C32.98995824 63.41330421 18.34396737 60.23125003 4.98803711 58.5690918 C2.10825276 58.21074592 -0.77259907 57.86230831 -3.65380859 57.515625 C-5.49697639 57.29158123 -7.34007793 57.06699151 -9.18310547 56.84179688 C-10.46597694 56.68548546 -10.46597694 56.68548546 -11.77476501 56.52601624 C-15.70352989 56.03586133 -19.55764698 55.45144331 -23.43701172 54.65039062 C-28.7185055 54.26628199 -31.9874214 54.71555446 -36.43701172 57.65039062 C-40.53758046 61.70305553 -43.1590696 64.87096942 -43.74951172 70.77539062 C-43.35994645 75.6059999 -42.37091779 79.7339028 -39.43701172 83.65039062 C-33.92428894 87.98834196 -28.56939065 89.66002628 -21.73388672 90.74804688 C-20.81601379 90.9090538 -19.89814087 91.07006073 -18.95245361 91.23594666 C-16.03318331 91.74466639 -13.11058578 92.22958517 -10.18701172 92.71289062 C-7.31941024 93.20288996 -4.45269892 93.69785735 -1.58605957 94.19345093 C0.31462465 94.52138302 2.21575078 94.84676407 4.11730957 95.16958618 C11.35443687 96.40677046 18.55027824 97.80607907 25.73028564 99.34059143 C46.19232222 103.60686939 64.37107434 100.98895852 84.56298828 96.65039062 C85.61373535 96.42577148 86.66448242 96.20115234 87.74707031 95.96972656 C92.07314508 95.04314406 96.39839127 94.1129921 100.72143555 93.17236328 C114.51137714 90.18886719 128.35396243 87.46587125 142.19311523 84.72167969 C143.14115021 84.533396 144.08918518 84.3451123 145.06594849 84.15112305 C146.84291134 83.79839988 148.62005826 83.44660209 150.39743042 83.09594727 C155.12438511 82.15808226 159.82718317 81.15535206 164.51850891 80.05203247 C168.02374655 79.36342189 171.49943202 79.26718345 175.06298828 79.27539062 C175.80129883 79.27700195 176.53960937 79.27861328 177.30029297 79.28027344 C183.09631483 79.41054982 187.65285864 80.42881236 192.56298828 83.65039062 C193.51173828 84.26914062 194.46048828 84.88789063 195.43798828 85.52539062 C199.93716223 90.02456457 201.18582761 94.88435511 201.62158203 101.06835938 C201.44538207 108.83290422 197.77066033 115.09540207 192.56298828 120.65039062 C185.64479332 126.4788235 177.5340674 129.02856578 169.06298828 131.71289062 C167.52533496 132.21147241 165.98807965 132.71128295 164.45117188 133.2121582 C160.90085291 134.36606099 157.34761266 135.51042926 153.79248047 136.64941406 C147.39353523 138.70121175 141.00315831 140.77915621 134.6129818 142.85805511 C117.95638575 148.27566986 101.28468749 153.64584726 84.60599518 158.99501038 C82.58981572 159.6417846 80.57378893 160.28903262 78.55780029 160.93640137 C71.06966342 163.34040435 63.57838192 165.73428534 56.0824585 168.11392212 C53.81539816 168.83461908 51.54913188 169.55781969 49.28375244 170.28378296 C14.52954502 181.41074699 14.52954502 181.41074699 -2.43701172 181.15039062 C-3.94908203 181.17359375 -3.94908203 181.17359375 -5.49169922 181.19726562 C-11.49230486 181.16733742 -17.18566488 180.43433377 -23.02880859 179.10913086 C-23.79337624 178.93700294 -24.55794388 178.76487501 -25.34568024 178.58753109 C-37.22171228 175.84578067 -48.96227096 172.55206155 -60.71818733 169.34195447 C-64.22827121 168.3844252 -67.73964107 167.43163343 -71.25085449 166.47825623 C-77.14160705 164.8780995 -83.03154882 163.27498993 -88.92089844 161.66967773 C-97.16637735 159.42213697 -105.41328199 157.17986495 -113.66049862 154.93871033 C-162.42549567 141.68565161 -162.42549567 141.68565161 -180.43701172 136.65039062 C-180.42742432 137.56119385 -180.41783691 138.47199707 -180.40795898 139.41040039 C-180.33935547 145.92773438 -180.33935547 145.92773438 -180.43701172 148.65039062 C-182.30686993 150.52024883 -185.46848792 149.77818411 -187.96044922 149.77978516 C-188.64173889 149.78153748 -189.32302856 149.78328979 -190.02496338 149.78509521 C-192.28733839 149.78951305 -194.54963585 149.786576 -196.81201172 149.78320312 C-198.37760432 149.78387618 -199.94319682 149.78484623 -201.50878906 149.78610229 C-204.79411817 149.78757917 -208.07942014 149.78542504 -211.36474609 149.78076172 C-215.58521688 149.77506443 -219.80562408 149.77834349 -224.02609253 149.78433418 C-227.26017744 149.78794007 -230.49424716 149.78680108 -233.72833252 149.78420639 C-235.28493253 149.7835372 -236.8415339 149.78436528 -238.39813232 149.78668594 C-240.56998368 149.78921292 -242.74173068 149.78537127 -244.91357422 149.77978516 C-246.15187988 149.77898956 -247.39018555 149.77819397 -248.66601562 149.77737427 C-251.43701172 149.65039062 -251.43701172 149.65039062 -252.43701172 148.65039062 C-252.5334495 146.82811375 -252.55888542 145.00205703 -252.55726624 143.17723083 C-252.55932823 141.39557526 -252.55932823 141.39557526 -252.56143188 139.57792664 C-252.55783661 138.26306778 -252.55424133 136.94820892 -252.55053711 135.59350586 C-252.55025524 134.20421348 -252.55041297 132.81492095 -252.55097961 131.42562866 C-252.5512676 127.64273774 -252.54537073 123.85987825 -252.53840566 120.07699466 C-252.53217227 116.12783386 -252.53156833 112.17867241 -252.53038025 108.22950745 C-252.52726689 100.74613988 -252.51905344 93.26278684 -252.50903076 85.77942568 C-252.49786977 77.26203329 -252.49235921 68.74464023 -252.48733532 60.22724235 C-252.47687083 42.70161669 -252.4592713 25.17600519 -252.43701172 7.65039062 C-249.61816375 6.24096664 -247.259798 6.51533904 -244.10717773 6.50512695 C-243.45821533 6.50176834 -242.80925293 6.49840973 -242.140625 6.49494934 C-239.9907033 6.48543354 -237.84085943 6.48349594 -235.69091797 6.48242188 C-234.19880643 6.47920981 -232.70669522 6.47584577 -231.21458435 6.47233582 C-228.08486196 6.46634303 -224.95516718 6.46449608 -221.82543945 6.46508789 C-217.81252912 6.46518954 -213.79979562 6.45153524 -209.78692722 6.43431568 C-206.7045968 6.42320438 -203.62230926 6.42116841 -200.53996086 6.42169762 C-199.0603671 6.42051627 -197.58077228 6.41608581 -196.1011982 6.40836525 C-194.03275239 6.39858242 -191.96469207 6.40143636 -189.89624023 6.4074707 C-188.1299099 6.40533318 -188.1299099 6.40533318 -186.32789612 6.40315247 C-183.43701172 6.65039062 -183.43701172 6.65039062 -180.43701172 8.65039062 C-180.14404297 11.25195313 -180.14404297 11.25195313 -180.24951172 14.27539062 C-180.29011719 15.77972656 -180.29011719 15.77972656 -180.33154297 17.31445312 C-180.36634766 18.0853125 -180.40115234 18.85617187 -180.43701172 19.65039062 C-179.88627487 19.55540283 -179.33553802 19.46041504 -178.76811218 19.36254883 C-150.4563615 14.48330315 -122.13374274 9.72386036 -93.73266602 5.390625 C-82.42271884 3.65524266 -71.17729046 1.72367911 -59.94921875 -0.48217773 C-39.30237406 -4.51289542 -20.60892228 -3.78807324 0 0 Z " fill="#FED0A2" transform="translate(252.43701171875,327.349609375)"/>
<path d="M0 0 C17.43524338 13.46794249 30.26404154 32.95363152 33.125 55.125 C35.1333962 81.13267378 30.15325932 103.84559854 13.125 124.125 C10.26277094 127.29407611 7.28734245 130.25630363 4.125 133.125 C3.5475 133.65609375 2.97 134.1871875 2.375 134.734375 C-15.06990495 149.21987643 -39.86514801 154.16326315 -61.875 152.125 C-83.96847908 149.32623749 -104.33790812 136.56077434 -117.875 119.125 C-126.03013581 108.00436026 -131.08661527 95.58547594 -133.875 82.125 C-134.05933594 81.3825 -134.24367188 80.64 -134.43359375 79.875 C-137.8536235 58.56791199 -132.40115705 36.41976923 -120 18.8984375 C-90.82875014 -19.17433345 -39.50636776 -27.44886874 0 0 Z " fill="#F7F1EF" transform="translate(478.875,19.875)"/>
<path d="M0 0 C17.43524338 13.46794249 30.26404154 32.95363152 33.125 55.125 C35.1333962 81.13267378 30.15325932 103.84559854 13.125 124.125 C10.26277094 127.29407611 7.28734245 130.25630363 4.125 133.125 C3.25875 133.92164063 3.25875 133.92164063 2.375 134.734375 C-14.3683564 148.63734058 -38.10197008 153.74589138 -59.29492188 152.38183594 C-68.29318528 151.48609662 -76.6446842 148.79342939 -84.875 145.125 C-82.0530025 143.24366833 -79.31183411 141.88138818 -76.25 140.4375 C-70.50207415 137.58431271 -65.75395671 134.25970908 -60.875 130.125 C-60.22144531 129.62742188 -59.56789063 129.12984375 -58.89453125 128.6171875 C-44.49901275 117.18122669 -34.44014711 97.29453307 -32.125 79.3125 C-32.0425 78.260625 -31.96 77.20875 -31.875 76.125 C-30.91078125 76.09921875 -29.9465625 76.0734375 -28.953125 76.046875 C-27.68984375 75.99015625 -26.4265625 75.9334375 -25.125 75.875 C-23.87203125 75.82859375 -22.6190625 75.7821875 -21.328125 75.734375 C-17.42497091 75.0455831 -16.17683591 74.2985708 -13.875 71.125 C-13.20823122 67.58249949 -13.20823122 67.58249949 -13.875 64.125 C-17.08831684 60.78689416 -20.13111255 60.66219437 -24.625 60.4375 C-25.79546875 60.37175781 -26.9659375 60.30601563 -28.171875 60.23828125 C-29.06390625 60.20089844 -29.9559375 60.16351563 -30.875 60.125 C-31.143125 58.8875 -31.41125 57.65 -31.6875 56.375 C-31.87441406 55.54871094 -32.06132812 54.72242187 -32.25390625 53.87109375 C-32.66971223 52.03265601 -33.0732734 50.19140802 -33.46484375 48.34765625 C-38.91468937 24.32318885 -52.44742029 7.31997217 -72.875 -5.875 C-75.18264056 -7.28145413 -77.49154658 -8.60012957 -79.875 -9.875 C-79.875 -10.535 -79.875 -11.195 -79.875 -11.875 C-52.28605205 -21.21023314 -23.67417748 -16.44872528 0 0 Z " fill="#D6DCE9" transform="translate(478.875,19.875)"/>
<path d="M0 0 C0.6489624 -0.00335861 1.2979248 -0.00671722 1.96655273 -0.01017761 C4.11647443 -0.01969342 6.26631831 -0.02163101 8.41625977 -0.02270508 C9.9083713 -0.02591715 11.40048252 -0.02928118 12.89259338 -0.03279114 C16.02231578 -0.03878392 19.15201055 -0.04063088 22.28173828 -0.04003906 C26.29464861 -0.03993741 30.30738211 -0.05359171 34.32025051 -0.07081127 C37.40258093 -0.08192257 40.48486847 -0.08395854 43.56721687 -0.08342934 C45.04681063 -0.08461069 46.52640545 -0.08904114 48.00597954 -0.0967617 C50.07442534 -0.10654453 52.14248567 -0.1036906 54.2109375 -0.09765625 C55.97726784 -0.09979378 55.97726784 -0.09979378 57.77928162 -0.10197449 C60.67016602 0.14526367 60.67016602 0.14526367 63.67016602 2.14526367 C64.04210281 4.5749979 64.04210281 4.5749979 64.03765869 7.69398499 C64.04322784 8.87327072 64.048797 10.05255646 64.05453491 11.26757812 C64.04532013 12.56791992 64.03610535 13.86826172 64.02661133 15.20800781 C64.02740185 16.58597442 64.02949802 17.96394082 64.0328064 19.34190369 C64.03795063 23.0897726 64.02438544 26.83736803 64.0072794 30.58519292 C63.99227345 34.50050913 63.99341816 38.41582135 63.99261475 42.3311615 C63.98891952 48.90604336 63.9739385 55.48082099 63.95141602 62.05566406 C63.9225299 70.50564158 63.91219224 78.95553515 63.90773392 87.40555668 C63.90375922 94.65731932 63.89125693 101.90906358 63.87738705 109.16081309 C63.87328159 111.49828662 63.87035927 113.83575949 63.86759186 116.17323494 C63.86271055 119.83969572 63.85252704 123.50610519 63.83815384 127.17254066 C63.83144696 129.16784469 63.82962401 131.16316322 63.82791138 133.15847778 C63.82220123 134.3349437 63.81649109 135.51140961 63.81060791 136.723526 C63.80763325 137.75241471 63.80465858 138.78130342 63.80159378 139.84137058 C63.67016602 142.14526367 63.67016602 142.14526367 62.67016602 143.14526367 C60.49753921 143.24482645 58.32163496 143.27326086 56.14672852 143.2746582 C55.46543884 143.27641052 54.78414917 143.27816284 54.08221436 143.27996826 C51.81983935 143.28438609 49.55754188 143.28144905 47.29516602 143.27807617 C45.72957341 143.27874923 44.16398091 143.27971927 42.59838867 143.28097534 C39.31305957 143.28245222 36.0277576 143.28029808 32.74243164 143.27563477 C28.52196086 143.26993748 24.30155365 143.27321653 20.08108521 143.27920723 C16.8470003 143.28281311 13.61293057 143.28167413 10.37884521 143.27907944 C8.8222452 143.27841024 7.26564383 143.27923833 5.70904541 143.28155899 C3.53719406 143.28408597 1.36544706 143.28024432 -0.80639648 143.2746582 C-2.04470215 143.27386261 -3.28300781 143.27306702 -4.55883789 143.27224731 C-7.32983398 143.14526367 -7.32983398 143.14526367 -8.32983398 142.14526367 C-8.42627177 140.3229868 -8.45170769 138.49693007 -8.4500885 136.67210388 C-8.4521505 134.8904483 -8.4521505 134.8904483 -8.45425415 133.07279968 C-8.45065887 131.75794083 -8.4470636 130.44308197 -8.44335938 129.08837891 C-8.44307751 127.69908653 -8.44323523 126.309794 -8.44380188 124.92050171 C-8.44408987 121.13761078 -8.438193 117.3547513 -8.43122792 113.5718677 C-8.42499453 109.6227069 -8.4243906 105.67354545 -8.42320251 101.72438049 C-8.42008915 94.24101292 -8.4118757 86.75765989 -8.40185302 79.27429873 C-8.39069203 70.75690634 -8.38518147 62.23951327 -8.38015759 53.7221154 C-8.36969309 36.19648973 -8.35209356 18.67087824 -8.32983398 1.14526367 C-5.51098601 -0.26416031 -3.15262027 0.01021208 0 0 Z " fill="#99E5FB" transform="translate(8.329833984375,333.854736328125)"/>
<path d="M0 0 C0.66 0 1.32 0 2 0 C4.63369392 6.97154274 4.74999117 13.70627167 1.90625 20.68359375 C-8.53989972 39.74781699 -35.33838046 43.49272417 -54.43211365 49.60734558 C-57.1475508 50.47754582 -59.86208768 51.35053752 -62.57667732 52.22337723 C-81.95096027 58.45179613 -101.34458055 64.61932799 -120.75 70.75 C-121.89387177 71.11146118 -123.03774353 71.47292236 -124.21627808 71.84533691 C-136.53271398 75.73444468 -148.85977696 79.58774139 -161.203125 83.390625 C-162.2834198 83.72366638 -163.3637146 84.05670776 -164.47674561 84.39984131 C-176.43262316 88.07362588 -187.16462089 90.25688319 -199.75 90.4375 C-200.78511719 90.46005859 -201.82023438 90.48261719 -202.88671875 90.50585938 C-208.95123034 90.48711861 -214.69461043 89.80521196 -220.60058594 88.4609375 C-221.74648571 88.20250769 -221.74648571 88.20250769 -222.91553497 87.93885708 C-234.7884899 85.19344355 -246.52731946 81.90110835 -258.28117561 78.69156384 C-261.79125949 77.73403457 -265.30262935 76.7812428 -268.81384277 75.8278656 C-274.70459533 74.22770888 -280.5945371 72.6245993 -286.48388672 71.01928711 C-294.72936563 68.77174634 -302.97627027 66.52947433 -311.2234869 64.28831971 C-358.76050007 51.36899509 -358.76050007 51.36899509 -378 46 C-378 38.74 -378 31.48 -378 24 C-362.02224566 27.90319506 -346.09488214 31.84317571 -330.33374023 36.56030273 C-323.29455403 38.65694064 -316.21929905 40.49381417 -309.08300781 42.22729492 C-303.13410336 43.68334983 -297.27789523 45.35786622 -291.41650391 47.12988281 C-286.12679732 48.71150631 -280.80201717 50.07204527 -275.4375 51.375 C-268.075751 53.16540698 -260.82052104 55.20412489 -253.5625 57.375 C-223.77465932 66.12047584 -198.25872961 72.32909894 -168 63 C-166.62115135 62.58628605 -165.24188887 62.17394987 -163.86230469 61.76269531 C-146.18006493 56.48742905 -128.59668208 50.94110302 -111.11709595 45.02957153 C-97.97394237 40.58897326 -84.74629195 36.43398705 -71.5 32.3125 C-70.45979706 31.98868347 -69.41959412 31.66486694 -68.34786987 31.33123779 C-64.29417547 30.06948528 -60.24032593 28.80823314 -56.18623352 27.54776001 C-48.49293392 25.15539914 -40.80349998 22.75199839 -33.125 20.3125 C-32.20138672 20.02221924 -31.27777344 19.73193848 -30.32617188 19.43286133 C-17.44094314 15.32110155 -7.77862668 11.43915689 0 0 Z " fill="#FEBC85" transform="translate(450,418)"/>
<path d="M0 0 C3.98500253 0.55790035 5.22730668 1.64485901 8.125 4.4375 C9.85143689 7.09812526 11.22827794 9.90543135 12.625 12.75 C13.50320662 14.4782453 14.38487166 16.20473646 15.26953125 17.9296875 C15.73311035 18.83428711 16.19668945 19.73888672 16.67431641 20.67089844 C19.10419317 25.30492124 21.71136641 29.83558065 24.3125 34.375 C28.04295858 40.89781572 31.69467961 47.45355248 35.21875 54.08984375 C35.56069901 54.73318161 35.90264801 55.37651947 36.25495911 56.03935242 C37.9375037 59.20909615 39.61163846 62.38299336 41.27612305 65.56225586 C41.87980713 66.7044458 42.48349121 67.84663574 43.10546875 69.0234375 C43.64067139 70.0448584 44.17587402 71.0662793 44.72729492 72.11865234 C45.91377583 74.55487345 45.91377583 74.55487345 48.125 75.4375 C48.61379639 74.5904248 49.10259277 73.74334961 49.60620117 72.87060547 C51.43623199 69.7027055 53.27377846 66.53921873 55.11352539 63.37695312 C55.90591963 62.01256997 56.69632177 60.64702772 57.48461914 59.28027344 C58.62373417 57.30609559 59.77015507 55.33631759 60.91796875 53.3671875 C61.26401657 52.76381561 61.61006439 52.16044373 61.96659851 51.53878784 C67.7870803 41.60645985 67.7870803 41.60645985 72.125 39.4375 C74.28332215 39.31997609 76.44529283 39.2676725 78.60668945 39.24462891 C79.60457489 39.23236267 79.60457489 39.23236267 80.62261963 39.21984863 C82.82783101 39.19500306 85.03297804 39.17848058 87.23828125 39.1640625 C87.99145315 39.15873882 88.74462505 39.15341515 89.52062035 39.14793015 C93.50747027 39.12120168 97.49428892 39.10182622 101.48120117 39.08740234 C105.59734179 39.07075835 109.71268112 39.02598309 113.82851887 38.9750309 C116.99499928 38.94135879 120.16128951 38.92982506 123.32793236 38.92417526 C124.84500436 38.91746216 126.36206382 38.90223825 127.87896156 38.87828445 C130.00501214 38.84662806 132.12890215 38.84659501 134.25512695 38.85400391 C136.06809013 38.84187363 136.06809013 38.84187363 137.91767883 38.82949829 C142.05777415 39.61432304 143.53984605 41.17818855 146.125 44.4375 C146.6875 47.5 146.6875 47.5 146.125 50.4375 C144.2579009 52.74025556 142.76852259 54.11573871 140.125 55.4375 C138.22533727 55.43500722 136.32562249 55.36419442 134.42871094 55.26196289 C128.42973906 54.97344101 122.43888519 54.78323892 116.43471909 54.66729069 C112.80408186 54.59160094 109.18560254 54.47321638 105.56054688 54.25463867 C89.55613488 52.85684062 89.55613488 52.85684062 75.47982788 58.72167969 C70.96791673 64.40427705 68.09665858 70.67366684 65.42631531 77.3795166 C63.39842576 82.14488939 60.69043638 86.43944522 57.9375 90.8125 C57.49291443 91.55652573 57.04832886 92.30055145 56.590271 93.06712341 C54.64843552 96.27920565 53.29025572 98.32732952 50.125 100.4375 C47.25 100.875 47.25 100.875 44.125 100.4375 C38.5218253 96.06778867 35.8408528 89.76003064 32.625 83.5625 C31.38092699 81.20723052 30.13510354 78.85297761 28.88671875 76.5 C28.57244431 75.90575226 28.25816986 75.31150452 27.93437195 74.69924927 C24.87382107 68.92652931 21.67313106 63.23838696 18.4375 57.5625 C12.56409058 47.24299053 6.81696081 36.85806028 1.125 26.4375 C0.465 26.4375 -0.195 26.4375 -0.875 26.4375 C-1.44661865 27.47583984 -1.44661865 27.47583984 -2.02978516 28.53515625 C-9.12848384 41.41334519 -16.27285128 54.26436416 -23.625 67 C-24.20846191 68.02158203 -24.79192383 69.04316406 -25.39306641 70.09570312 C-25.93882324 71.03478516 -26.48458008 71.97386719 -27.046875 72.94140625 C-27.7598877 74.17612671 -27.7598877 74.17612671 -28.48730469 75.43579102 C-30.61058019 78.49855242 -32.51943956 79.36228529 -36.125 80.125 C-41.02032615 79.22752354 -42.0579003 77.58415014 -44.83984375 73.6171875 C-57.84979069 53.2907061 -57.84979069 53.2907061 -59.875 47.4375 C-62.36705416 49.71993355 -63.9718263 52.07603458 -65.65234375 55 C-66.16603516 55.87914062 -66.67972656 56.75828125 -67.20898438 57.6640625 C-68.27701749 59.5113305 -69.3421297 61.3602904 -70.40429688 63.2109375 C-70.91927734 64.09007812 -71.43425781 64.96921875 -71.96484375 65.875 C-72.42753662 66.67808594 -72.89022949 67.48117187 -73.36694336 68.30859375 C-75.03847198 70.66827151 -76.42074602 71.91036106 -78.875 73.4375 C-81.37242126 73.83190918 -81.37242126 73.83190918 -84.20678711 73.85742188 C-85.80380714 73.88128967 -85.80380714 73.88128967 -87.43309021 73.90563965 C-89.15037071 73.90594177 -89.15037071 73.90594177 -90.90234375 73.90625 C-92.08341202 73.91386353 -93.26448029 73.92147705 -94.4813385 73.92932129 C-96.97866705 73.94012514 -99.4760408 73.94297426 -101.97338867 73.93847656 C-105.79487431 73.93750448 -109.61435128 73.97912237 -113.43554688 74.0234375 C-115.86197498 74.02864458 -118.28841006 74.03133269 -120.71484375 74.03125 C-121.85767319 74.04764526 -123.00050262 74.06404053 -124.17796326 74.08093262 C-132.06511043 74.01220158 -132.06511043 74.01220158 -136.13110352 71.12695312 C-137.875 68.4375 -137.875 68.4375 -137.9375 64.8125 C-136.76228808 61.07947389 -136.16042967 60.34714029 -132.875 58.4375 C-130.72407532 58.23391724 -130.72407532 58.23391724 -128.3762207 58.46533203 C-127.48994995 58.53795761 -126.6036792 58.61058319 -125.69055176 58.68540955 C-124.73692749 58.77117752 -123.78330322 58.8569455 -122.80078125 58.9453125 C-101.33698016 61.44165273 -101.33698016 61.44165273 -82.0625 54.62158203 C-76.16659927 48.13183917 -72.85998674 39.76453708 -70.14379883 31.5378418 C-68.80936296 28.27711426 -67.62479133 26.60842224 -64.875 24.4375 C-61.5 23.75 -61.5 23.75 -57.875 24.4375 C-52.19301971 30.18441721 -48.20264478 37.01312359 -44 43.875 C-43.31164062 44.98810547 -42.62328125 46.10121094 -41.9140625 47.24804688 C-40.22898129 49.9746019 -38.5494815 52.70442725 -36.875 55.4375 C-34.02467822 52.03609019 -31.74193067 48.64308308 -29.625 44.74609375 C-29.02204102 43.64523438 -28.41908203 42.544375 -27.79785156 41.41015625 C-27.32708191 40.54414795 -27.32708191 40.54414795 -26.84680176 39.66064453 C-25.19735436 36.62985487 -23.52938735 33.60933918 -21.859375 30.58984375 C-21.52460144 29.98453827 -21.18982788 29.37923279 -20.84490967 28.75558472 C-17.70187981 23.09178738 -14.45006747 17.49646696 -11.125 11.9375 C-10.63644531 11.11435303 -10.14789063 10.29120605 -9.64453125 9.44311523 C-9.18949219 8.68844971 -8.73445312 7.93378418 -8.265625 7.15625 C-7.87407227 6.50591797 -7.48251953 5.85558594 -7.07910156 5.18554688 C-4.95162865 2.09700144 -3.79651107 0.57772995 0 0 Z " fill="#F8EFEE" transform="translate(275.875,190.5625)"/>
<path d="M0 0 C3.33116258 3.33116258 3.23718945 6.66625383 3.375 11.1875 C3.30071419 18.61608112 1.40511312 22.45738826 -3.64453125 27.7109375 C-11.04793153 34.56284295 -19.29336492 36.27315584 -29.16064453 36.18701172 C-36.6694382 35.82126481 -44.11812291 34.84671055 -51.57495117 33.91870117 C-54.45473552 33.5603553 -57.33558735 33.21191769 -60.21679688 32.86523438 C-62.05996467 32.64119061 -63.90306621 32.41660089 -65.74609375 32.19140625 C-66.6013414 32.08719864 -67.45658905 31.98299103 -68.3377533 31.87562561 C-72.26651817 31.38547071 -76.12063526 30.80105269 -80 30 C-87.77910452 29.43424694 -92.19126262 32.04548871 -98 37 C-101.16268119 31.76696928 -100.6766952 25.89993626 -100 20 C-98.40144068 15.45409694 -95.77874599 12.2162206 -91.8125 9.5 C-83.59565664 5.67503744 -73.22151871 8.54958137 -64.6875 9.9375 C-35.53955813 15.63364729 -35.53955813 15.63364729 -7.78125 9.43359375 C-2.8610456 5.52728761 -2.8610456 5.52728761 0 0 Z " fill="#FEBB85" transform="translate(309,352)"/>
<path d="M0 0 C2.60253378 2.57439671 3.87592026 4.21783069 4.45410156 7.86254883 C4.4331543 8.88372803 4.41220703 9.90490723 4.390625 10.95703125 C4.37773437 12.06884766 4.36484375 13.18066406 4.3515625 14.32617188 C4.31804687 15.47666016 4.28453125 16.62714844 4.25 17.8125 C4.23195313 18.98232422 4.21390625 20.15214844 4.1953125 21.35742188 C4.1482644 24.2391178 4.08253709 27.11913797 4 30 C4.73114014 29.97905273 5.46228027 29.95810547 6.21557617 29.93652344 C9.53941001 29.85319686 12.86302384 29.80128668 16.1875 29.75 C17.33798828 29.71648437 18.48847656 29.68296875 19.67382812 29.6484375 C20.78564453 29.63554688 21.89746094 29.62265625 23.04296875 29.609375 C24.06414795 29.58842773 25.08532715 29.56748047 26.13745117 29.54589844 C29.78216931 30.12407974 31.42560329 31.39746622 34 34 C34.75614845 38.15881647 34.55473018 40.1373634 32.26171875 43.703125 C27.18495346 47.27814056 22.22945501 46.53251517 16.1875 46.3125 C15.01767578 46.28994141 13.84785156 46.26738281 12.64257812 46.24414062 C9.76041231 46.18532091 6.88086319 46.10317141 4 46 C4.02618408 46.73114014 4.05236816 47.46228027 4.0793457 48.21557617 C4.18350144 51.53933082 4.24838621 54.86274194 4.3125 58.1875 C4.35439453 59.33798828 4.39628906 60.48847656 4.43945312 61.67382812 C4.57761721 71.20714995 4.57761721 71.20714995 1.671875 74.265625 C-1.59536967 76.38646803 -3.17874312 76.73173004 -7 76 C-9.30275556 74.1329009 -10.67823871 72.64352259 -12 70 C-12.08471364 68.18658158 -12.10721083 66.37005839 -12.09765625 64.5546875 C-12.09443359 63.47832031 -12.09121094 62.40195313 -12.08789062 61.29296875 C-12.07951172 60.16503906 -12.07113281 59.03710938 -12.0625 57.875 C-12.05798828 56.73933594 -12.05347656 55.60367188 -12.04882812 54.43359375 C-12.03701615 51.62234362 -12.02054507 48.8111977 -12 46 C-13.09671021 46.03927612 -13.09671021 46.03927612 -14.21557617 46.0793457 C-17.53933082 46.18350144 -20.86274194 46.24838621 -24.1875 46.3125 C-25.33798828 46.35439453 -26.48847656 46.39628906 -27.67382812 46.43945312 C-37.20697241 46.57761464 -37.20697241 46.57761464 -40.26171875 43.66796875 C-42.413604 40.36518757 -42.80514585 38.8647001 -42 35 C-40.33634944 32.44657678 -39.60261619 31.41466947 -37 30 C-32.71519032 29.3762715 -28.50574526 29.53025297 -24.1875 29.6875 C-23.01767578 29.71005859 -21.84785156 29.73261719 -20.64257812 29.75585938 C-17.76041231 29.81467909 -14.88086319 29.89682859 -12 30 C-12.02618408 29.26885986 -12.05236816 28.53771973 -12.0793457 27.78442383 C-12.18350144 24.46066918 -12.24838621 21.13725806 -12.3125 17.8125 C-12.35439453 16.66201172 -12.39628906 15.51152344 -12.43945312 14.32617188 C-12.56302754 5.7995374 -12.56302754 5.7995374 -9.703125 1.73828125 C-6.1373634 -0.55473018 -4.15881647 -0.75614845 0 0 Z " fill="#FC838A" transform="translate(432,50)"/>
<path d="M0 0 C0.78763229 0.10860855 1.57526459 0.2172171 2.38676453 0.32911682 C4.88739077 0.67460205 7.38707753 1.02637106 9.88671875 1.37890625 C13.17412862 1.83848481 16.46191417 2.29528377 19.75 2.75 C20.53021515 2.85815033 21.3104303 2.96630066 22.11428833 3.07772827 C27.5916866 3.82865067 33.06638973 4.45294435 38.57421875 4.94140625 C34.8349305 8.81474446 30.90415792 12.26991486 26.69921875 15.62890625 C26.05227051 16.14638428 25.40532227 16.6638623 24.73876953 17.19702148 C2.23594718 34.94140625 2.23594718 34.94140625 -3.42578125 34.94140625 C-3.42578125 35.60140625 -3.42578125 36.26140625 -3.42578125 36.94140625 C-11.86639708 36.18475135 -19.26243233 35.18445365 -25.42578125 28.94140625 C-28.75407266 23.96705768 -30.31337885 18.93269004 -29.42578125 12.94140625 C-26.94082222 7.27569965 -23.51877705 3.46278154 -18.42578125 -0.05859375 C-12.40599174 -2.06519025 -6.15687871 -0.88167951 0 0 Z " fill="#FD8087" transform="translate(237.42578125,382.05859375)"/>
<path d="M0 0 C0.99 0.495 0.99 0.495 2 1 C4.18540811 1.09188942 6.37369969 1.11750236 8.56103516 1.11352539 C9.23432358 1.11367142 9.907612 1.11381744 10.6013031 1.1139679 C12.83058881 1.11327027 15.05979135 1.10548489 17.2890625 1.09765625 C18.83320063 1.09579154 20.37733934 1.09436789 21.92147827 1.09336853 C25.98870472 1.08954754 30.05589555 1.07972082 34.12310791 1.06866455 C38.2721712 1.05844144 42.42124025 1.05386898 46.5703125 1.04882812 C54.71355803 1.03809819 62.85677458 1.02102677 71 1 C71.65501383 6.02968661 72.1368663 10.85279065 72.125 15.9375 C72.12886719 17.62166016 72.12886719 17.62166016 72.1328125 19.33984375 C72 22 72 22 71 23 C68.8273732 23.09956278 66.65146894 23.12799719 64.4765625 23.12939453 C63.79527283 23.13114685 63.11398315 23.13289917 62.41204834 23.13470459 C60.14967333 23.13912242 57.88737587 23.13618538 55.625 23.1328125 C54.0594074 23.13348556 52.4938149 23.1344556 50.92822266 23.13571167 C47.64289355 23.13718855 44.35759158 23.13503441 41.07226562 23.13037109 C36.85179484 23.1246738 32.63138764 23.12795286 28.41091919 23.13394356 C25.17683428 23.13754944 21.94276455 23.13641046 18.7086792 23.13381577 C17.15207919 23.13314657 15.59547782 23.13397466 14.03887939 23.13629532 C11.86702804 23.1388223 9.69528104 23.13498065 7.5234375 23.12939453 C6.28513184 23.12859894 5.04682617 23.12780334 3.77099609 23.12698364 C1 23 1 23 0 22 C-0.08700342 20.36527118 -0.10701063 18.72685945 -0.09765625 17.08984375 C-0.09443359 16.10048828 -0.09121094 15.11113281 -0.08789062 14.09179688 C-0.07951172 13.05087891 -0.07113281 12.00996094 -0.0625 10.9375 C-0.05798828 9.89271484 -0.05347656 8.84792969 -0.04882812 7.77148438 C-0.03699913 5.1809334 -0.02051689 2.59049441 0 0 Z " fill="#62DBFB" transform="translate(0,454)"/>
</svg>
